<?xml version="1.0" encoding="UTF-8"?>
<svg xmlns="http://www.w3.org/2000/svg" version="1.1" viewBox="0 0 64 64">
  <path d="M61.6 28.16h-4.29c-1.66-11.06-10.41-19.81-21.47-21.47V2.4c0-1.33-1.07-2.4-2.4-2.4h-2.88c-1.33 0-2.4 1.07-2.4 2.4v4.29c-11.06 1.66-19.81 10.41-21.47 21.47H2.4c-1.33 0-2.4 1.07-2.4 2.4v2.88c0 1.33 1.07 2.4 2.4 2.4h4.29c1.66 11.06 10.41 19.81 21.47 21.47v4.29c0 1.33 1.07 2.4 2.4 2.4h2.88c1.33 0 2.4-1.07 2.4-2.4v-4.29c11.06-1.66 19.81-10.41 21.47-21.47h4.29c1.33 0 2.4-1.07 2.4-2.4v-2.88c0-1.33-1.07-2.4-2.4-2.4ZM35.84 49.5v-3.58c0-1.33-1.07-2.4-2.4-2.4h-2.88c-1.33 0-2.4 1.07-2.4 2.4v3.58c-6.8-1.49-12.17-6.86-13.66-13.66h3.58c1.33 0 2.4-1.07 2.4-2.4v-2.88c0-1.33-1.07-2.4-2.4-2.4h-3.58c1.49-6.8 6.86-12.17 13.66-13.66v3.58c0 1.33 1.07 2.4 2.4 2.4h2.88c1.33 0 2.4-1.07 2.4-2.4v-3.58c6.8 1.49 12.17 6.86 13.66 13.66h-3.58c-1.33 0-2.4 1.07-2.4 2.4v2.88c0 1.33 1.07 2.4 2.4 2.4h3.58c-1.49 6.8-6.86 12.17-13.66 13.66Z" fill="#f90"/>
</svg>