<?xml version="1.0" encoding="UTF-8"?>
<svg xmlns="http://www.w3.org/2000/svg" version="1.1" viewBox="0 0 64 64">
  <circle cx="32" cy="32" r="32" fill="#ef4444"/>
  <path d="M46.59 19.44l-2.04-2.04c-.94-.94-2.46-.94-3.39 0l-9.16 9.16-9.16-9.16c-.94-.94-2.46-.94-3.39 0l-2.04 2.04c-.94.94-.94 2.46 0 3.39l9.16 9.16-9.16 9.16c-.94.94-.94 2.46 0 3.39l2.04 2.04c.94.94 2.46.94 3.39 0l9.16-9.16 9.16 9.16c.94.94 2.46.94 3.39 0l2.04-2.04c.94-.94.94-2.46 0-3.39l-9.16-9.16 9.16-9.16c.94-.94.94-2.46 0-3.39Z" fill="#fff"/>
</svg>