<?xml version="1.0" encoding="UTF-8"?>
<svg xmlns="http://www.w3.org/2000/svg" version="1.1" viewBox="0 0 64 64">
  <path d="M28.79 5.43L.51 54.79c-1.45 2.54.38 5.69 3.3 5.69h56.38c2.92 0 4.75-3.15 3.31-5.69L35.4 5.44c-1.46-2.56-5.14-2.56-6.61 0Z" fill="#ff9800"/>
  <path d="M32 43.23c-1.89 0-3.42-1.53-3.42-3.42v-21.36c0-1.89 1.53-3.42 3.42-3.42s3.42 1.53 3.42 3.42v21.36c0 1.89-1.53 3.42-3.42 3.42ZM32 47.78c-1.89 0-3.42 1.53-3.42 3.42s1.53 3.42 3.42 3.42 3.42-1.53 3.42-3.42-1.53-3.42-3.42-3.42Z" fill="#ffd819"/>
</svg>