<?xml version="1.0" encoding="UTF-8"?>
<svg id="Layer_1" xmlns="http://www.w3.org/2000/svg" version="1.1" viewBox="0 0 20 24">
  <!-- Generator: Adobe Illustrator 29.5.1, SVG Export Plug-In . SVG Version: 2.1.0 Build 141)  -->
  <defs>
    <style>
      .st0 {
        fill: #ffeb2b;
      }

      .st1 {
        fill: #f8af00;
      }

      .st2 {
        fill: #e58d00;
      }

      .st3 {
        fill: #f7a900;
      }

      .st4 {
        fill: #ffda09;
      }

      .st5 {
        fill: #fdfa16;
      }
    </style>
  </defs>
  <ellipse class="st0" cx="8.03" cy="12" rx="8.03" ry="12"/>
  <ellipse class="st4" cx="7.87" cy="12.06" rx="7.44" ry="11.31"/>
  <ellipse class="st5" cx="7.72" cy="12.06" rx="6" ry="9.15"/>
  <ellipse class="st2" cx="7.75" cy="12.02" rx="5.88" ry="8.94"/>
  <path class="st1" d="M10.8,4.47c-.65-.41-1.36-.63-2.1-.63-3.05,0-5.52,3.76-5.52,8.4s2.47,8.4,5.52,8.4c.22,0,.43-.02.64-.06,2.42-1.11,4.18-4.52,4.18-8.56,0-3.17-1.09-5.95-2.72-7.54Z"/>
  <path class="st3" d="M8.03,24h4.1c4.35,0,7.88-5.27,7.88-11.77S16.83,1,12.78.5c-.22-.03-4.31-.48-4.09-.46,4.12.51,7.36,5.67,7.36,11.96,0,6.63-3.59,12-8.03,12Z"/>
  <g>
    <path class="st2" d="M12.93,2.49l3.73.11c-.2-.21-.41-.41-.62-.59l-3.67-.11c.19.19.38.38.56.59Z"/>
    <path class="st2" d="M14.5,4.9l3.82.06c-.13-.24-.26-.48-.4-.71l-3.79-.05c.13.23.26.46.37.71Z"/>
    <path class="st2" d="M12.71,21.74c-.24.26-.48.49-.74.71l4.13-.06c.25-.22.49-.45.72-.71l-4.1.06Z"/>
    <path class="st2" d="M15.63,8.14l3.9.06c-.07-.28-.14-.56-.23-.83l-3.88-.06c.08.27.15.55.21.83Z"/>
    <path class="st2" d="M14.63,18.82c-.13.29-.27.57-.42.83l4.06-.06c.14-.27.28-.55.41-.83l-4.04.06Z"/>
    <path class="st2" d="M11.06.89l3.43.11c-.32-.15-.65-.27-.98-.36l-3.1-.1c.22.1.44.22.65.35Z"/>
    <path class="st2" d="M15.76,15.21c-.05.28-.11.56-.18.83l4-.06c.06-.27.12-.55.16-.83l-3.99.06Z"/>
    <path class="st2" d="M16.04,11.22c.01.26.02.51.02.78,0,.02,0,.04,0,.05h3.94c0-.28-.01-.56-.03-.83h-3.93Z"/>
    <path class="st2" d="M14.64,23.39l-4.2.06c-.33.16-.68.28-1.03.37l4.3-.06c.32-.1.62-.22.92-.37Z"/>
  </g>
</svg>