<?xml version="1.0" encoding="UTF-8"?>
<svg xmlns="http://www.w3.org/2000/svg" version="1.1" viewBox="0 0 58 64">
  <path fill="#49cb79" d="M2.25 9.78C11.17 7.31 18.54 4.43 27.27.38c1.1-.51 2.36-.51 3.46 0 8.73 4.05 16.1 6.92 25.02 9.4 1.08.3 1.87 1.26 1.96 2.39 1.83 23.21-4.63 40-26.12 51.19-1.62.84-3.55.84-5.17 0C4.92 52.17-1.53 35.39.29 12.17c.09-1.13.88-2.09 1.96-2.39ZM29.64 52.94c15.48-7.45 19.27-20.96 18.11-34.46-.03-.36-.28-.67-.63-.77-5.16-1.5-10.69-3.61-16.08-6.21-1.29-.62-2.78-.62-4.06 0-5.39 2.6-10.93 4.7-16.08 6.21-.35.1-.6.41-.63.77-1.16 13.5 2.62 27.01 18.11 34.46.4.19.87.19 1.27 0Z"/>
  <path fill="#52a36d" d="M29.64 52.94c15.48-7.45 19.27-20.96 18.11-34.46-.03-.36-.28-.67-.63-.77-5.16-1.5-10.69-3.61-16.08-6.21-1.29-.62-2.78-.62-4.06 0-5.39 2.6-10.93 4.7-16.08 6.21-.35.1-.6.41-.63.77-1.16 13.5 2.62 27.01 18.11 34.46.4.19.87.19 1.27 0Z"/>
</svg>