<?xml version="1.0" encoding="UTF-8"?>
<svg xmlns="http://www.w3.org/2000/svg" version="1.1" viewBox="0 0 64 62">
  <path fill="#714ee6" d="M3.06 62C1.35 62-.03 60.61 0 58.9c.08-3.67.76-9.79 4.14-13.67 4.36-5.01 10.71-5.96 12.44-6.13.17-.02.25-.23.13-.35-1.32-1.32-6.2-6.58-6.2-12.26C10.51 19.93 19.18 0 32 0c12.82 0 21.49 19.93 21.49 26.49 0 5.68-4.88 10.94-6.2 12.26-.12.12-.05.33.13.35 1.74.17 8.08 1.12 12.44 6.13 3.38 3.88 4.06 10 4.14 13.67.04 1.7-1.35 3.1-3.06 3.1h-28.94s-28.94 0-28.94 0ZM17.07 25.7c0 10.07 12.51 17.18 14.62 18.31.19.1.41.1.6 0 2.11-1.13 14.62-8.24 14.62-18.31 0-11.51-14.93-11.33-14.93-11.33 0 0-14.93-.18-14.93 11.33Z"/>
  <path fill="#4a437c" d="M17.07 25.7c0 10.07 12.51 17.18 14.62 18.31.19.1.41.1.6 0 2.11-1.13 14.62-8.24 14.62-18.31 0-11.51-14.93-11.33-14.93-11.33 0 0-14.93-.18-14.93 11.33Z"/>
</svg>