<?xml version="1.0" encoding="UTF-8"?>
<svg xmlns="http://www.w3.org/2000/svg" version="1.1" viewBox="0 0 56 64">
  <path fill="#55d7ff" d="M54.73 44.55l-6.89-3.99 5.21-1.4c1.35-.36 2.15-1.75 1.78-3.1-.36-1.35-1.74-2.15-3.09-1.79l-10.08 2.71-8.61-4.98 8.62-4.98 10.08 2.71c1.35.36 2.73-.44 3.09-1.79.36-1.35-.44-2.74-1.78-3.1l-5.21-1.4 6.89-3.99c1.21-.7 1.62-2.25.92-3.45s-2.24-1.62-3.45-.93l-6.89 3.99 1.39-5.22c.36-1.35-.44-2.74-1.78-3.1-1.35-.36-2.73.44-3.09 1.79l-2.7 10.1-8.62 4.99v-9.97l7.38-7.39c.99-.99.99-2.59 0-3.58-.99-.99-2.58-.99-3.57 0l-3.81 3.82V2.53c0-1.4-1.13-2.53-2.52-2.53s-2.52 1.13-2.52 2.53v7.97l-3.81-3.82c-.99-.99-2.58-.99-3.57 0-.99.99-.99 2.59 0 3.58l7.38 7.39v9.97l-8.61-4.98-2.7-10.1c-.36-1.35-1.74-2.15-3.09-1.79-1.35.36-2.15 1.75-1.78 3.1l1.39 5.22-6.89-3.99c-1.21-.7-2.75-.28-3.45.93s-.28 2.76.92 3.45l6.89 3.99-5.21 1.4c-1.35.36-2.15 1.75-1.78 3.1.36 1.35 1.74 2.15 3.09 1.79l10.08-2.71 8.61 4.98-8.61 4.98-10.08-2.71c-1.35-.36-2.73.44-3.09 1.79-.36 1.35.44 2.74 1.78 3.1l5.21 1.4-6.89 3.99c-1.21.7-1.62 2.25-.92 3.45.7 1.21 2.24 1.62 3.45.93l6.89-3.99-1.39 5.22c-.36 1.35.44 2.74 1.78 3.1 1.35.36 2.73-.44 3.09-1.79l2.7-10.1 8.61-4.98v9.97l-7.38 7.39c-.99.99-.99 2.59 0 3.58.99.99 2.58.99 3.57 0l3.81-3.82v7.97c0 1.4 1.13 2.53 2.52 2.53s2.52-1.13 2.52-2.53v-7.97l3.81 3.82c.99.99 2.58.99 3.57 0 .99-.99.99-2.59 0-3.58l-7.38-7.39v-9.97l8.61 4.98 2.7 10.1c.36 1.35 1.74 2.15 3.09 1.79 1.35-.36 2.15-1.75 1.78-3.1l-1.39-5.22 6.89 3.99c1.21.7 2.75.28 3.45-.93.7-1.21.28-2.76-.92-3.45Z"/>
</svg>