<?xml version="1.0" encoding="UTF-8"?>
<svg xmlns="http://www.w3.org/2000/svg" version="1.1" viewBox="0 0 960 930">
  <defs>
    <linearGradient id="linear-gradient" x1="479.97" y1="904.2" x2="479.97" y2="458.81" gradientUnits="userSpaceOnUse">
      <stop offset="0" stop-color="#3b82f6"/>
      <stop offset="1" stop-color="#10b981"/>
    </linearGradient>
  </defs>
  <g>
    <path d="M480,0c-32.45,0-63.92,11.43-93.53,33.97-23.31,17.74-44.93,41.97-64.26,72.02-32.15,49.98-54.6,111.66-54.6,149.99,0,26.9,9.05,54.99,26.89,83.48.01.02.03.04.04.06-23.18,9.21-49.25,24.41-70.85,49.47-18.65,21.64-41.19,62.84-42.68,136.25-.33,16.4,5.79,31.89,17.23,43.62,11.47,11.75,26.81,18.22,43.2,18.22h477.11c16.39,0,31.73-6.47,43.2-18.22,11.45-11.73,17.57-27.22,17.23-43.62-1.5-73.41-24.04-114.61-42.68-136.25-21.6-25.06-47.67-40.26-70.85-49.47.01-.02.03-.04.04-.06,17.84-28.49,26.89-56.58,26.89-83.48,0-38.34-22.45-100.02-54.6-149.99-19.33-30.05-40.95-54.28-64.26-72.02C543.92,11.43,512.45,0,480,0h0Z"/>
    <path fill="#714ee6" d="M241.45,551.75c-14.12,0-25.53-11.62-25.24-25.79.62-30.59,6.24-81.51,34.11-113.86,35.96-41.73,88.27-49.67,102.58-51.09,1.44-.14,2.08-1.89,1.06-2.92-10.87-10.97-51.14-54.82-51.14-102.12,0-54.67,71.54-220.65,177.18-220.65,105.65,0,177.18,165.98,177.18,220.65,0,47.29-40.27,91.14-51.14,102.12-1.02,1.03-.38,2.77,1.06,2.92,14.3,1.42,66.61,9.35,102.58,51.09,27.88,32.35,33.49,83.27,34.11,113.86.29,14.17-11.13,25.79-25.24,25.79h-238.55s-238.55,0-238.55,0Z"/>
    <path fill="#4a437c" d="M356.96,249.41c0,83.84,103.16,143.1,120.56,152.5,1.55.84,3.4.84,4.95,0,17.4-9.4,120.56-68.66,120.56-152.5,0-95.84-123.04-94.36-123.04-94.36,0,0-123.04-1.48-123.04,94.36Z"/>
  </g>
  <g>
    <path d="M876.54,791.93l56.98-94.57h24.06v-269.47H373.81l-51.56,121.46-8.94-121.46h-112.62l-34.11,46.94-34.11-46.94H19.84L0,697.36h23.85v232.64h350.21l17.09-40.02h20.24l17.09,40.02h531.52l-83.46-138.07ZM299.22,697.36h28.44l-28.44,66.99v-66.99ZM480.26,697.36h38.62c-9.92,9.95-18.07,21.31-24.34,33.75l-14.28-33.75Z"/>
    <path fill="url(#linear-gradient)" d="M33.16,666.45l15.29-207.64h68.36l49.77,68.48,49.77-68.48h68.36l15.29,207.64h-74.95l-6-79.45-52.47,58.25-52.47-58.25-6,79.45H33.16ZM479.31,666.45l-17.09-40.02h-60.86l-17.09,40.02h-78.25l88.14-207.64h80.65l87.84,207.64h-83.35ZM415.45,593.62h32.98l-16.49-38.82-16.49,38.82ZM578.43,666.45v-137.53h-49.47v-70.12h173.89v70.12h-49.17v137.53h-75.25ZM713.02,666.45v-207.64h74.95v63.5h63.86v-63.5h74.95v207.64h-74.95v-74.03h-63.86v74.03h-74.95ZM54.65,899.09v-207.64h74.95v63.5h63.86v-63.5h74.95v207.64h-74.95v-74.03h-63.86v74.03H54.65ZM448.79,899.09l-17.09-40.02h-60.86l-17.09,40.02h-78.25l88.14-207.64h80.65l87.85,207.64h-83.35ZM384.93,826.26h32.98l-16.49-38.82-16.49,38.82ZM510.43,795.26c0-61.09,44.97-108.94,117.23-108.94,18.89,0,38.68,3.01,50.37,6.92v74.03c-11.99-5.42-25.48-9.03-41.07-9.03-31.78,0-47.97,16.25-47.97,37.01s16.19,37.01,47.97,37.01c15.59,0,29.08-3.61,41.07-9.03v74.03c-11.69,3.91-31.48,6.92-50.37,6.92-72.25,0-117.23-47.85-117.23-108.94ZM840.53,791.95l64.76,107.13h-86.05l-42.87-70.72h-11.99v70.72h-74.95v-207.64h74.95v73.73h11.99l43.47-73.73h81.25l-60.56,100.51Z"/>
  </g>
</svg>