<?xml version="1.0" encoding="UTF-8"?>
<svg xmlns="http://www.w3.org/2000/svg" version="1.1" viewBox="0 0 360 60">
  <defs>
    <linearGradient id="linear-gradient" x1="345.51" y1="37.06" x2="10.75" y2="37.06" gradientUnits="userSpaceOnUse">
      <stop offset="0" stop-color="#3b82f6"/>
      <stop offset="1" stop-color="#10b981"/>
    </linearGradient>
  </defs>
  <g>
    <path d="M297.65 14.11c-9.95 0-16.81 3.6-21.42 11.74l-4.95-11.74h-20.67l-7.19 16.98V14.11H68.12s-8.5 20.07-8.5 20.07l-1.47-20.07h-19.21l-5.68 7.84-5.68-7.84H8.37l-3.37 45.89h23.35l.45-5.91 4.46 4.97 4.46-4.97.45 5.91h35.34l2.88-6.77h3.22l2.88 6.77h173.5s2.88-6.77 2.88-6.77h3.22l2.88 6.77h90.02l-14.17-23.51 13.45-22.38h-56.63Z" fill="#111"/>
    <path d="M10.75 54.62l2.58-35.13h11.53l8.4 11.59 8.4-11.59h11.53l2.58 35.13h-12.64l-1.01-13.44-8.85 9.85-8.85-9.85-1.01 13.44h-12.64ZM86.02 54.62l-2.88-6.77h-10.27l-2.88 6.77h-13.2l14.87-35.13h13.6l14.82 35.13h-14.06ZM75.24 42.3h5.56l-2.78-6.57-2.78 6.57ZM102.74 54.62v-23.27h-8.35v-11.86h29.33v11.86h-8.29v23.27h-12.69ZM125.44 54.62V19.49h12.64v10.74h10.77v-10.74h12.64v35.13h-12.64v-12.52h-10.77v12.52h-12.64ZM202.01 54.62V19.49h12.64v10.74h10.77v-10.74h12.64v35.13h-12.64v-12.52h-10.77v12.52h-12.64ZM268.5 54.62l-2.88-6.77h-10.27l-2.88 6.77h-13.2l14.87-35.13h13.6l14.82 35.13h-14.06ZM257.73 42.3h5.56l-2.78-6.57-2.78 6.57ZM278.9 37.06c0-10.34 7.59-18.43 19.77-18.43 3.19 0 6.52.51 8.5 1.17v12.52c-2.02-.92-4.3-1.53-6.93-1.53-5.36 0-8.09 2.75-8.09 6.26s2.73 6.26 8.09 6.26c2.63 0 4.91-.61 6.93-1.53v12.52c-1.97.66-5.31 1.17-8.5 1.17-12.19 0-19.77-8.09-19.77-18.43ZM334.58 36.5l10.92 18.12h-14.52l-7.23-11.96h-2.02v11.96h-12.64V19.49h12.64v12.47h2.02l7.33-12.47h13.71l-10.22 17Z" fill="url(#linear-gradient)"/>
  </g>
  <g>
    <path d="M158.87 55c-1.35 0-2.45-1.12-2.42-2.5.06-2.96.6-7.89 3.27-11.02 3.45-4.04 8.47-4.81 9.84-4.95.14-.01.2-.18.1-.28-1.04-1.06-4.91-5.31-4.91-9.89 0-5.29 6.86-21.36 17-21.36 10.13 0 17 16.07 17 21.36 0 4.58-3.86 8.82-4.91 9.89-.1.1-.04.27.1.28 1.37.14 6.39.91 9.84 4.95 2.67 3.13 3.21 8.06 3.27 11.02.03 1.37-1.07 2.5-2.42 2.5h-22.88s-22.88 0-22.88 0ZM169.95 25.73c0 8.12 9.9 13.85 11.57 14.76.15.08.33.08.48 0 1.67-.91 11.57-6.65 11.57-14.76 0-9.28-11.8-9.14-11.8-9.14 0 0-11.8-.14-11.8 9.14Z" fill="#714ee6"/>
    <path d="M169.95 25.73c0 8.12 9.9 13.85 11.57 14.76.15.08.33.08.48 0 1.67-.91 11.57-6.65 11.57-14.76 0-9.28-11.8-9.14-11.8-9.14 0 0-11.8-.14-11.8 9.14Z" fill="#4a437c"/>
    <path d="M207.55 38.22c-1.76-2.07-3.81-3.5-5.77-4.49 1.1-2.14 1.93-4.65 1.93-7.37 0-7.83-8.52-26.36-21.96-26.36s-21.96 18.54-21.96 26.36c0 2.72.83 5.23 1.93 7.37-1.96.99-4.01 2.42-5.77 4.49-3.54 4.15-4.39 10-4.47 14.18-.04 2.02.71 3.92 2.11 5.37 1.4 1.44 3.27 2.23 5.27 2.23h45.77c2 0 3.87-.79 5.27-2.23 1.4-1.44 2.15-3.35 2.11-5.37-.09-4.18-.93-10.03-4.47-14.18ZM204.64 55h-45.77c-1.35 0-2.45-1.12-2.42-2.5.06-2.96.6-7.89 3.27-11.02 3.45-4.04 8.47-4.81 9.84-4.95.14-.01.2-.18.1-.28-1.04-1.06-4.91-5.31-4.91-9.89 0-5.29 6.86-21.36 17-21.36s17 16.07 17 21.36c0 4.58-3.86 8.82-4.91 9.89-.1.1-.04.27.1.28 1.37.14 6.39.91 9.84 4.95 2.67 3.13 3.21 8.06 3.27 11.02.03 1.37-1.07 2.5-2.42 2.5Z" fill="#111"/>
  </g>
</svg>